<svg width="354" height="248" viewBox="0 0 354 248" fill="none" xmlns="http://www.w3.org/2000/svg">
<mask id="path-1-inside-1_2524_2645" fill="white">
<path fill-rule="evenodd" clip-rule="evenodd" d="M0 0L176.669 247.5L353.338 0H0ZM40.7702 20.1948L177.169 211.279L313.568 20.1948H40.7702Z"/>
</mask>
<path fill-rule="evenodd" clip-rule="evenodd" d="M0 0L176.669 247.5L353.338 0H0ZM40.7702 20.1948L177.169 211.279L313.568 20.1948H40.7702Z" fill="#67C5FB"/>
<path d="M176.669 247.5L175.855 248.081L176.669 249.221L177.483 248.081L176.669 247.5ZM0 0V-1H-1.94244L-0.813915 0.580984L0 0ZM353.338 0L354.152 0.580984L355.281 -1H353.338V0ZM177.169 211.279L176.355 211.86L177.169 213.001L177.983 211.86L177.169 211.279ZM40.7702 20.1948V19.1948H38.8278L39.9563 20.7758L40.7702 20.1948ZM313.568 20.1948L314.382 20.7758L315.511 19.1948H313.568V20.1948ZM177.483 246.919L0.813915 -0.580984L-0.813915 0.580984L175.855 248.081L177.483 246.919ZM352.524 -0.580984L175.855 246.919L177.483 248.081L354.152 0.580984L352.524 -0.580984ZM0 1H353.338V-1H0V1ZM177.983 210.698L41.5841 19.6138L39.9563 20.7758L176.355 211.86L177.983 210.698ZM312.754 19.6138L176.355 210.698L177.983 211.86L314.382 20.7758L312.754 19.6138ZM40.7702 21.1948H313.568V19.1948H40.7702V21.1948Z" fill="#67C5FB" mask="url(#path-1-inside-1_2524_2645)"/>
</svg>
