<svg width="113" height="112" viewBox="0 0 113 112" fill="none" xmlns="http://www.w3.org/2000/svg">
<circle cx="56" cy="56" r="53.5" stroke="#67C5FB" stroke-width="5"/>
<mask id="path-2-inside-1_2524_2642" fill="white">
<path fill-rule="evenodd" clip-rule="evenodd" d="M63.3198 47.8309C63.7278 43.9502 63.9375 40.0023 63.9375 36C63.9375 27.1077 62.9021 18.4839 60.9579 10.2688C59.9554 10.1611 58.9483 10.0856 57.9382 10.0426C51.4351 9.76561 44.9454 10.8424 38.8803 13.2048C32.9445 15.5167 27.542 19.0106 23 23.4729C38.8916 27.4741 52.8689 36.1174 63.3198 47.8309Z"/>
</mask>
<path fill-rule="evenodd" clip-rule="evenodd" d="M63.3198 47.8309C63.7278 43.9502 63.9375 40.0023 63.9375 36C63.9375 27.1077 62.9021 18.4839 60.9579 10.2688C59.9554 10.1611 58.9483 10.0856 57.9382 10.0426C51.4351 9.76561 44.9454 10.8424 38.8803 13.2048C32.9445 15.5167 27.542 19.0106 23 23.4729C38.8916 27.4741 52.8689 36.1174 63.3198 47.8309Z" fill="#67C5FB"/>
<path d="M63.3198 47.8309L62.5736 48.4967L64.0781 50.1829L64.3143 47.9355L63.3198 47.8309ZM60.9579 10.2688L61.931 10.0385L61.7681 9.35009L61.0647 9.27453L60.9579 10.2688ZM57.9382 10.0426L57.9807 9.04348L57.9807 9.04348L57.9382 10.0426ZM38.8803 13.2048L39.2432 14.1366L39.2432 14.1366L38.8803 13.2048ZM23 23.4729L22.2992 22.7595L21.0287 24.0077L22.7558 24.4426L23 23.4729ZM62.9375 36C62.9375 39.9673 62.7296 43.8804 62.3253 47.7264L64.3143 47.9355C64.7259 44.0201 64.9375 40.0372 64.9375 36H62.9375ZM59.9848 10.4991C61.9112 18.6389 62.9375 27.1855 62.9375 36H64.9375C64.9375 27.03 63.8931 18.3288 61.931 10.0385L59.9848 10.4991ZM61.0647 9.27453C60.0409 9.16456 59.0124 9.08741 57.9807 9.04348L57.8956 11.0417C58.8843 11.0838 59.8699 11.1577 60.8511 11.2631L61.0647 9.27453ZM57.9807 9.04348C51.3393 8.76062 44.7115 9.86034 38.5173 12.2729L39.2432 14.1366C45.1793 11.8245 51.5309 10.7706 57.8956 11.0417L57.9807 9.04348ZM38.5173 12.2729C32.4553 14.6341 26.9378 18.2023 22.2992 22.7595L23.7008 24.1862C28.1462 19.8189 33.4337 16.3993 39.2432 14.1366L38.5173 12.2729ZM22.7558 24.4426C38.4512 28.3944 52.2544 36.9307 62.5736 48.4967L64.066 47.1652C53.4835 35.3041 39.332 26.5537 23.2442 22.5031L22.7558 24.4426Z" fill="#67C5FB" mask="url(#path-2-inside-1_2524_2642)"/>
<mask id="path-4-inside-2_2524_2642" fill="white">
<path fill-rule="evenodd" clip-rule="evenodd" d="M66.0304 57.7865C69.601 56.2126 73.1315 54.4333 76.605 52.445C84.3223 48.0274 91.2923 42.8445 97.456 37.076C97.0514 36.1525 96.6167 35.2409 96.1522 34.3429C93.1618 28.5615 89.0033 23.4642 83.94 19.3741C78.9846 15.3712 73.2685 12.4183 67.1394 10.6932C71.5617 26.4728 71.0043 42.8973 66.0304 57.7865Z"/>
</mask>
<path fill-rule="evenodd" clip-rule="evenodd" d="M66.0304 57.7865C69.601 56.2126 73.1315 54.4333 76.605 52.445C84.3223 48.0274 91.2923 42.8445 97.456 37.076C97.0514 36.1525 96.6167 35.2409 96.1522 34.3429C93.1618 28.5615 89.0033 23.4642 83.94 19.3741C78.9846 15.3712 73.2685 12.4183 67.1394 10.6932C71.5617 26.4728 71.0043 42.8973 66.0304 57.7865Z" fill="#67C5FB"/>
<path d="M66.0304 57.7865L65.0819 57.4696L64.3659 59.613L66.4337 58.7015L66.0304 57.7865ZM97.456 37.076L98.1393 37.8061L98.6558 37.3227L98.372 36.6747L97.456 37.076ZM96.1522 34.3429L97.0404 33.8835L96.1522 34.3429ZM83.94 19.3741L84.5683 18.5962L84.5683 18.5962L83.94 19.3741ZM67.1394 10.6932L67.4103 9.73064L65.6958 9.2481L66.1765 10.9631L67.1394 10.6932ZM76.1082 51.5771C72.6651 53.5481 69.1658 55.3116 65.6271 56.8714L66.4337 58.7015C70.0363 57.1136 73.598 55.3186 77.1018 53.3129L76.1082 51.5771ZM96.7727 36.3459C90.6655 42.0615 83.758 47.1981 76.1082 51.5771L77.1018 53.3129C84.8866 48.8566 91.9191 43.6275 98.1393 37.8061L96.7727 36.3459ZM98.372 36.6747C97.9588 35.7316 97.5148 34.8006 97.0404 33.8835L95.2639 34.8023C95.7186 35.6813 96.1441 36.5734 96.54 37.4772L98.372 36.6747ZM97.0404 33.8835C93.9864 27.9791 89.7394 22.7734 84.5683 18.5962L83.3116 20.152C88.2672 24.1551 92.3373 29.1439 95.2639 34.8023L97.0404 33.8835ZM84.5683 18.5962C79.5076 14.5081 73.6698 11.4924 67.4103 9.73064L66.8684 11.6558C72.8671 13.3442 78.4617 16.2342 83.3116 20.152L84.5683 18.5962ZM66.1765 10.9631C70.5442 26.5479 69.9932 42.768 65.0819 57.4696L66.9789 58.1033C72.0154 43.0266 72.5792 26.3978 68.1023 10.4234L66.1765 10.9631Z" fill="#67C5FB" mask="url(#path-4-inside-2_2524_2642)"/>
<mask id="path-6-inside-3_2524_2642" fill="white">
<path fill-rule="evenodd" clip-rule="evenodd" d="M47.6177 63.5748C47.2651 67.461 47.1116 71.4115 47.1687 75.4133C47.2955 84.3047 48.4537 92.9129 50.5148 101.099C51.5187 101.193 52.5268 101.254 53.5374 101.283C60.0438 101.467 66.5175 100.298 72.5483 97.8491C78.4505 95.4528 83.8027 91.8822 88.2806 87.3557C72.3336 83.5814 58.2345 75.1382 47.6177 63.5748Z"/>
</mask>
<path fill-rule="evenodd" clip-rule="evenodd" d="M47.6177 63.5748C47.2651 67.461 47.1116 71.4115 47.1687 75.4133C47.2955 84.3047 48.4537 92.9129 50.5148 101.099C51.5187 101.193 52.5268 101.254 53.5374 101.283C60.0438 101.467 66.5175 100.298 72.5483 97.8491C78.4505 95.4528 83.8027 91.8822 88.2806 87.3557C72.3336 83.5814 58.2345 75.1382 47.6177 63.5748Z" fill="#67C5FB"/>
<path d="M47.6177 63.5748L48.3543 62.8985L46.826 61.2339L46.6218 63.4844L47.6177 63.5748ZM50.5148 101.099L49.5451 101.344L49.7178 102.03L50.4222 102.095L50.5148 101.099ZM53.5374 101.283L53.5091 102.282L53.5374 101.283ZM72.5483 97.8491L72.9245 98.7756L72.9245 98.7756L72.5483 97.8491ZM88.2806 87.3557L88.9915 88.0589L90.2441 86.7928L88.5109 86.3825L88.2806 87.3557ZM48.1686 75.3991C48.112 71.4322 48.2641 67.5166 48.6136 63.6652L46.6218 63.4844C46.266 67.4053 46.1112 71.3908 46.1688 75.4276L48.1686 75.3991ZM51.4845 100.855C49.4423 92.7438 48.2942 84.2127 48.1686 75.3991L46.1688 75.4276C46.2967 84.3967 47.465 93.0821 49.5451 101.344L51.4845 100.855ZM50.4222 102.095C51.4475 102.191 52.4769 102.253 53.5091 102.282L53.5657 100.283C52.5766 100.255 51.59 100.195 50.6074 100.104L50.4222 102.095ZM53.5091 102.282C60.1539 102.47 66.7653 101.276 72.9245 98.7756L72.1721 96.9225C66.2696 99.319 59.9337 100.463 53.5657 100.283L53.5091 102.282ZM72.9245 98.7756C78.9523 96.3283 84.4183 92.6818 88.9915 88.0589L87.5697 86.6524C83.187 91.0826 77.9488 94.5772 72.1721 96.9225L72.9245 98.7756ZM88.5109 86.3825C72.7608 82.6549 58.8374 74.3162 48.3543 62.8985L46.8811 64.2511C57.6316 75.9601 71.9064 84.5079 88.0503 88.3288L88.5109 86.3825Z" fill="#67C5FB" mask="url(#path-6-inside-3_2524_2642)"/>
<mask id="path-8-inside-4_2524_2642" fill="white">
<path fill-rule="evenodd" clip-rule="evenodd" d="M59.3026 66.1479C62.4856 68.405 65.8244 70.5223 69.3133 72.4834C77.0649 76.8405 85.0899 80.1635 93.2039 82.4939C93.789 81.6728 94.3483 80.8319 94.8807 79.9724C98.3086 74.4392 100.55 68.2543 101.462 61.8096C102.355 55.5024 101.957 49.081 100.292 42.9351C89.0177 54.8277 74.6344 62.7771 59.3026 66.1479Z"/>
</mask>
<path fill-rule="evenodd" clip-rule="evenodd" d="M59.3026 66.1479C62.4856 68.405 65.8244 70.5223 69.3133 72.4834C77.0649 76.8405 85.0899 80.1635 93.2039 82.4939C93.789 81.6728 94.3483 80.8319 94.8807 79.9724C98.3086 74.4392 100.55 68.2543 101.462 61.8096C102.355 55.5024 101.957 49.081 100.292 42.9351C89.0177 54.8277 74.6344 62.7771 59.3026 66.1479Z" fill="#67C5FB"/>
<path d="M59.3026 66.1479L59.0878 65.1712L56.8808 65.6565L58.7241 66.9636L59.3026 66.1479ZM93.2039 82.4939L92.9278 83.455L93.6078 83.6503L94.0183 83.0742L93.2039 82.4939ZM94.8807 79.9724L95.7308 80.499L94.8807 79.9724ZM101.462 61.8096L102.452 61.9498L102.452 61.9498L101.462 61.8096ZM100.292 42.9351L101.258 42.6737L100.792 40.9545L99.5667 42.2471L100.292 42.9351ZM69.8033 71.6116C66.3448 69.6677 63.0356 67.5691 59.881 65.3322L58.7241 66.9636C61.9356 69.2409 65.3039 71.3769 68.8233 73.3551L69.8033 71.6116ZM93.4799 81.5328C85.4403 79.2237 77.4871 75.9306 69.8033 71.6116L68.8233 73.3551C76.6427 77.7503 84.7395 81.1033 92.9278 83.455L93.4799 81.5328ZM94.0183 83.0742C94.6158 82.2356 95.187 81.3768 95.7308 80.499L94.0306 79.4458C93.5095 80.287 92.9621 81.11 92.3895 81.9136L94.0183 83.0742ZM95.7308 80.499C99.2316 74.8481 101.52 68.5316 102.452 61.9498L100.472 61.6694C99.5791 67.977 97.3856 74.0303 94.0306 79.4458L95.7308 80.499ZM102.452 61.9498C103.364 55.5084 102.957 48.9503 101.258 42.6737L99.3272 43.1965C100.956 49.2116 101.346 55.4964 100.472 61.6694L102.452 61.9498ZM99.5667 42.2471C88.4312 53.9929 74.2266 61.8428 59.0878 65.1712L59.5173 67.1246C75.0422 63.7113 89.6043 55.6626 101.018 43.6231L99.5667 42.2471Z" fill="#67C5FB" mask="url(#path-8-inside-4_2524_2642)"/>
<mask id="path-10-inside-5_2524_2642" fill="white">
<path fill-rule="evenodd" clip-rule="evenodd" d="M45.0995 52.5356C41.5322 54.117 38.0055 55.9038 34.5363 57.8995C26.8284 62.3335 19.8694 67.5311 13.718 73.3128C14.1245 74.2354 14.5612 75.146 15.0276 76.0431C18.0302 81.8181 22.1996 86.9065 27.2715 90.9859C32.2354 94.9783 37.9578 97.919 44.0905 99.6311C39.6347 83.8609 40.1572 67.4353 45.0995 52.5356Z"/>
</mask>
<path fill-rule="evenodd" clip-rule="evenodd" d="M45.0995 52.5356C41.5322 54.117 38.0055 55.9038 34.5363 57.8995C26.8284 62.3335 19.8694 67.5311 13.718 73.3128C14.1245 74.2354 14.5612 75.146 15.0276 76.0431C18.0302 81.8181 22.1996 86.9065 27.2715 90.9859C32.2354 94.9783 37.9578 97.919 44.0905 99.6311C39.6347 83.8609 40.1572 67.4353 45.0995 52.5356Z" fill="#67C5FB"/>
<path d="M45.0995 52.5356L46.0486 52.8504L46.7601 50.7055L44.6942 51.6214L45.0995 52.5356ZM13.718 73.3128L13.0331 72.5841L12.5176 73.0686L12.8029 73.716L13.718 73.3128ZM15.0276 76.0431L14.1403 76.5044L15.0276 76.0431ZM27.2715 90.9859L26.6448 91.7652L26.6448 91.7652L27.2715 90.9859ZM44.0905 99.6311L43.8217 100.594L45.5371 101.073L45.0529 99.3592L44.0905 99.6311ZM35.0349 58.7663C38.4739 56.788 41.9694 55.0171 45.5048 53.4498L44.6942 51.6214C41.095 53.217 37.5372 55.0196 34.0377 57.0327L35.0349 58.7663ZM14.4028 74.0414C20.4979 68.3128 27.3944 63.1615 35.0349 58.7663L34.0377 57.0327C26.2624 61.5055 19.2409 66.7495 13.0331 72.5841L14.4028 74.0414ZM12.8029 73.716C13.218 74.6582 13.664 75.5882 14.1403 76.5044L15.9148 75.5818C15.4583 74.7038 15.0309 73.8126 14.6331 72.9096L12.8029 73.716ZM14.1403 76.5044C17.2068 82.4023 21.4649 87.599 26.6448 91.7652L27.8983 90.2067C22.9342 86.2141 18.8535 81.2339 15.9148 75.5818L14.1403 76.5044ZM26.6448 91.7652C31.7142 95.8425 37.5584 98.8458 43.8217 100.594L44.3594 98.6679C38.3572 96.9923 32.7565 94.1141 27.8983 90.2067L26.6448 91.7652ZM45.0529 99.3592C40.6521 83.7837 41.1686 67.5625 46.0486 52.8504L44.1504 52.2208C39.1458 67.3082 38.6174 83.9381 43.1282 99.903L45.0529 99.3592Z" fill="#67C5FB" mask="url(#path-10-inside-5_2524_2642)"/>
<mask id="path-12-inside-6_2524_2642" fill="white">
<path fill-rule="evenodd" clip-rule="evenodd" d="M53.1054 44.8273C49.9755 42.497 46.6867 40.3029 43.2442 38.2615C35.5956 33.7259 27.6498 30.2178 19.592 27.7C18.9881 28.5073 18.4094 29.335 17.8572 30.182C14.302 35.6342 11.9181 41.7655 10.8564 48.1873C9.81742 54.4721 10.0671 60.9011 11.5885 67.0839C23.1358 55.4558 37.6995 47.8419 53.1054 44.8273Z"/>
</mask>
<path fill-rule="evenodd" clip-rule="evenodd" d="M53.1054 44.8273C49.9755 42.497 46.6867 40.3029 43.2442 38.2615C35.5956 33.7259 27.6498 30.2178 19.592 27.7C18.9881 28.5073 18.4094 29.335 17.8572 30.182C14.302 35.6342 11.9181 41.7655 10.8564 48.1873C9.81742 54.4721 10.0671 60.9011 11.5885 67.0839C23.1358 55.4558 37.6995 47.8419 53.1054 44.8273Z" fill="#67C5FB"/>
<path d="M53.1054 44.8273L53.2974 45.8087L55.5151 45.3748L53.7026 44.0252L53.1054 44.8273ZM19.592 27.7L19.8903 26.7455L19.215 26.5345L18.7913 27.101L19.592 27.7ZM17.8572 30.182L17.0195 29.6358L17.8572 30.182ZM10.8564 48.1873L11.843 48.3504L11.843 48.3504L10.8564 48.1873ZM11.5885 67.0839L10.6175 67.3228L11.0431 69.0523L12.2981 67.7885L11.5885 67.0839ZM42.7341 39.1217C46.1466 41.1453 49.4063 43.32 52.5082 45.6294L53.7026 44.0252C50.5447 41.6741 47.2268 39.4606 43.7542 37.4014L42.7341 39.1217ZM19.2937 28.6545C27.2777 31.1492 35.1524 34.6257 42.7341 39.1217L43.7542 37.4014C36.0388 32.8262 28.0219 29.2864 19.8903 26.7455L19.2937 28.6545ZM18.7913 27.101C18.1745 27.9255 17.5835 28.7708 17.0195 29.6358L18.6948 30.7281C19.2353 29.8992 19.8017 29.0891 20.3927 28.299L18.7913 27.101ZM17.0195 29.6358C13.3887 35.204 10.954 41.4658 9.86981 48.0242L11.843 48.3504C12.8821 42.0652 15.2153 36.0644 18.6948 30.7281L17.0195 29.6358ZM9.86981 48.0242C8.8087 54.4427 9.06367 61.0085 10.6175 67.3228L12.5596 66.8449C11.0705 60.7937 10.8261 54.5015 11.843 48.3504L9.86981 48.0242ZM12.2981 67.7885C23.7028 56.304 38.0856 48.7853 53.2974 45.8087L52.9133 43.8459C37.3134 46.8985 22.5688 54.6076 10.879 66.3792L12.2981 67.7885Z" fill="#67C5FB" mask="url(#path-12-inside-6_2524_2642)"/>
</svg>
