<svg width="263" height="261" viewBox="0 0 263 261" fill="none" xmlns="http://www.w3.org/2000/svg">
<path d="M132.512 260.578C106.234 260.847 80.48 253.268 58.5895 238.824C36.699 224.38 19.6811 203.737 9.7419 179.57L57.7699 160.078C63.7775 174.685 74.0638 187.163 87.2953 195.893C100.527 204.624 116.093 209.205 131.977 209.042L132.512 260.578Z" fill="#9CDEF8"/>
<path d="M129.809 0.00695204C156.087 -0.26213 181.84 7.3166 203.731 21.7607C225.621 36.2048 242.639 56.8481 252.578 81.0146L205.089 100.288C199.037 85.5738 188.676 73.0045 175.347 64.2098C162.018 55.4152 146.338 50.8007 130.337 50.9645L129.809 0.00695204Z" fill="#9CDEF8"/>
<path d="M130.1 0.00431792C108.612 0.17749 87.4955 5.59267 68.6082 15.7737C49.7209 25.9547 33.641 40.5896 21.7826 58.3916C9.92418 76.1935 2.65045 96.6171 0.601054 117.866C-1.44834 139.116 1.78937 160.54 10.0295 180.254L57.2798 160.766C52.2538 148.741 50.279 135.674 51.529 122.713C52.779 109.753 57.2155 97.2956 64.4484 86.4376C71.6813 75.5796 81.4889 66.6532 93.0089 60.4435C104.529 54.2337 117.408 50.9308 130.515 50.8252L130.1 0.00431792Z" fill="#27B1E6"/>
<path d="M128.911 260.565C150.633 260.936 172.108 255.94 191.406 246.028C210.705 236.115 227.222 221.595 239.474 203.773C251.727 185.951 259.331 165.384 261.603 143.921C263.876 122.457 260.746 100.769 252.494 80.8049L204.569 100.352C209.561 112.431 211.455 125.552 210.08 138.538C208.705 151.523 204.105 163.966 196.692 174.749C189.279 185.531 179.286 194.316 167.61 200.313C155.935 206.31 142.942 209.333 129.8 209.109L128.911 260.565Z" fill="#27B1E6"/>
</svg>
