<svg width="161" height="160" viewBox="0 0 161 160" fill="none" xmlns="http://www.w3.org/2000/svg">
<path d="M79.2338 0.00416379C95.2737 -0.160081 110.993 4.4659 124.355 13.2824C137.717 22.0989 148.104 34.6994 154.171 49.4504L118.688 63.8512C115.526 56.1627 110.112 49.595 103.147 44.9996C96.1828 40.4042 87.9893 37.993 79.6289 38.0786L79.2338 0.00416379Z" fill="#0095E2"/>
<path d="M80.0582 159.058C64.2372 159.058 48.771 154.402 35.6121 145.677C22.4532 136.951 12.1916 124.549 6.12306 110.035L41.5213 95.4295C44.6844 102.995 50.033 109.459 56.8917 114.007C63.7505 118.555 71.8119 120.982 80.0582 120.982V159.058Z" fill="#0095E2"/>
<path d="M79.3358 0.00317697C66.2066 0.120871 53.3081 3.44443 41.7767 9.68103C30.2453 15.9176 20.435 24.8758 13.2101 35.7663C5.98522 46.6568 1.56752 59.1454 0.346258 72.1316C-0.875003 85.1178 1.13766 98.2031 6.20691 110.235L41.565 95.5335C38.9228 89.2624 37.8737 82.442 38.5103 75.6733C39.1468 68.9045 41.4494 62.3952 45.2152 56.7188C48.981 51.0424 54.0944 46.3731 60.1049 43.1224C66.1154 39.8718 72.8384 38.1394 79.6816 38.0781L79.3358 0.00317697Z" fill="#0570B7"/>
<path d="M78.3636 159.04C91.6435 159.32 104.785 156.312 116.603 150.289C128.421 144.266 138.545 135.417 146.063 124.539C153.58 113.66 158.255 101.095 159.665 87.9744C161.076 74.8541 159.178 61.5913 154.143 49.3812L118.673 63.8152C121.298 70.1794 122.287 77.0924 121.552 83.931C120.817 90.7697 118.38 97.3191 114.462 102.989C110.544 108.659 105.267 113.272 99.1067 116.411C92.9467 119.551 86.0971 121.118 79.1753 120.972L78.3636 159.04Z" fill="#0570B7"/>
</svg>
