<svg width="22" height="56" viewBox="0 0 22 56" fill="none" xmlns="http://www.w3.org/2000/svg">
<path d="M22 11C22 17.0751 17.075 22 11 22C4.925 22 0 17.0751 0 11C0 4.9249 4.925 0 11 0C17.075 0 22 4.9249 22 11ZM7.17101 11C7.17101 13.1146 8.885 14.8288 11 14.8288C13.115 14.8288 14.829 13.1146 14.829 11C14.829 8.8854 13.115 7.1712 11 7.1712C8.885 7.1712 7.17101 8.8854 7.17101 11Z" fill="#4AB8DB"/>
<path fill-rule="evenodd" clip-rule="evenodd" d="M8 54.9999V52.2887V49.8681V21H14V54.9617L13.9643 54.9999H8Z" fill="#4AB8DB"/>
<path d="M8 54.9999H7.5V55.4999H8V54.9999ZM8 21V20.5H7.5V21H8ZM14 21H14.5V20.5H14V21ZM14 54.9617L14.3652 55.3033L14.5 55.1591V54.9617H14ZM13.9643 54.9999V55.4999H14.1812L14.3294 55.3415L13.9643 54.9999ZM7.5 52.2887V54.9999H8.5V52.2887H7.5ZM7.5 49.8681V52.2887H8.5V49.8681H7.5ZM7.5 21V49.8681H8.5V21H7.5ZM14 20.5H8V21.5H14V20.5ZM14.5 54.9617V21H13.5V54.9617H14.5ZM14.3294 55.3415L14.3652 55.3033L13.6348 54.6202L13.5991 54.6584L14.3294 55.3415ZM8 55.4999H13.9643V54.4999H8V55.4999Z" fill="#4AB8DB"/>
</svg>
