<svg width="202" height="205" viewBox="0 0 202 205" fill="none" xmlns="http://www.w3.org/2000/svg">
<g clip-path="url(#clip0_2526_2646)">
<path d="M72 135C72 141.075 67.0751 146 61 146C54.9249 146 50 141.075 50 135C50 128.925 54.9249 124 61 124C67.0751 124 72 128.925 72 135ZM57.1712 135C57.1712 137.115 58.8854 138.829 61 138.829C63.1146 138.829 64.8288 137.115 64.8288 135C64.8288 132.885 63.1146 131.171 61 131.171C58.8854 131.171 57.1712 132.885 57.1712 135Z" fill="#016DA2"/>
<path d="M152 135C152 141.075 147.075 146 141 146C134.925 146 130 141.075 130 135C130 128.925 134.925 124 141 124C147.075 124 152 128.925 152 135ZM137.171 135C137.171 137.115 138.885 138.829 141 138.829C143.115 138.829 144.829 137.115 144.829 135C144.829 132.885 143.115 131.171 141 131.171C138.885 131.171 137.171 132.885 137.171 135Z" fill="#016DA2"/>
<path d="M116.5 102.25C116.5 110.948 109.448 118 100.75 118C92.0515 118 85 110.948 85 102.25C85 93.5515 92.0515 86.5 100.75 86.5C109.448 86.5 116.5 93.5515 116.5 102.25ZM94.5274 102.25C94.5274 105.687 97.3134 108.473 100.75 108.473C104.187 108.473 106.973 105.687 106.973 102.25C106.973 98.8134 104.187 96.0274 100.75 96.0274C97.3134 96.0274 94.5274 98.8134 94.5274 102.25Z" fill="#016DA2"/>
<path d="M84.5 175.5V182.9L82.5 182.407" stroke="#4AB8DB"/>
<path d="M159.5 89.5V111L146 125L150.5 129L165.5 114V92L166 91.5L193 64H192.5H184.5L159.5 89.5Z" fill="#016DA2" stroke="#016DA2"/>
<path d="M42 89.5V111L55.5 125L51 129L36 114V92L35.5 91.5L8.5 64H9H17L42 89.5Z" fill="#016DA2" stroke="#016DA2"/>
<path d="M96.8008 195V117H104.801V195H96.8008Z" fill="#016DA2" stroke="#016DA2"/>
<path d="M51 129L52 130L56.5 126L55.5 125" stroke="#016DA2"/>
<path d="M51.5 129.5L56 125.5" stroke="#016DA2"/>
<path d="M194.196 63.4764C186.723 44.7385 173.828 28.6766 157.173 17.3625C140.518 6.04837 120.867 0.000885727 100.754 9.72867e-08C80.6411 -0.000885533 60.9895 6.04487 44.3333 17.3575C27.6772 28.6702 14.7805 44.7309 7.30664 63.4682L16.6052 67.203C23.3354 50.3303 34.9487 35.8678 49.9473 25.6809C64.946 15.4939 82.6421 10.0498 100.754 10.0506C118.865 10.0514 136.56 15.4971 151.558 25.6853C166.556 35.8736 178.168 50.3371 184.897 67.2104L194.196 63.4764Z" fill="#016DA2"/>
<path d="M82.9112 183.005C71.6916 180.5 61.1147 175.691 51.851 168.883C42.5873 162.076 34.8387 153.418 29.0964 143.459C23.354 133.5 19.7431 122.457 18.4926 111.029C17.242 99.6014 18.379 88.0385 21.8315 77.0732L28.7481 79.2509C25.5972 89.2582 24.5595 99.811 25.7008 110.24C26.8421 120.67 30.1376 130.748 35.3782 139.837C40.6189 148.926 47.6905 156.827 56.1449 163.04C64.5993 169.253 74.2521 173.641 84.4915 175.928L82.9112 183.005Z" fill="#4AB8DB"/>
<path d="M118.418 183.131C129.799 180.541 140.505 175.579 149.839 168.571C159.172 161.563 166.922 152.664 172.583 142.457C178.244 132.251 181.689 120.964 182.693 109.336C183.696 97.7075 182.236 85.9981 178.407 74.9722L171.557 77.351C175.051 87.4136 176.384 98.1 175.468 108.712C174.552 119.325 171.409 129.625 166.242 138.94C161.075 148.256 154.002 156.376 145.484 162.773C136.966 169.169 127.195 173.696 116.809 176.06L118.418 183.131Z" fill="#4AB8DB"/>
<path d="M117 175.57V182.97L119 182.477" stroke="#4AB8DB"/>
<path d="M84 178H83V183H84V178Z" fill="#4AB8DB"/>
<path d="M119 177H117V183H119V177Z" fill="#4AB8DB"/>
<path fill-rule="evenodd" clip-rule="evenodd" d="M90.5006 19.6665C76.6933 21.4274 63.5446 26.6333 52.2685 34.812C41.6402 42.5209 33.0057 52.6312 27.0566 64.2996L32.4659 69.7372C37.9057 58.1816 46.1809 48.1853 56.526 40.6819C66.5669 33.3991 78.2348 28.699 90.5006 26.9823V19.6665Z" fill="#4AB8DB"/>
<path fill-rule="evenodd" clip-rule="evenodd" d="M144.664 41.5628C134.778 34.0935 123.218 29.1681 111 27.2079V19.8721C124.811 21.8901 137.894 27.3592 149.035 35.7772C159.397 43.6061 167.764 53.7468 173.481 65.3715L168.042 70.8384C162.825 59.2797 154.788 49.2121 144.664 41.5628Z" fill="#4AB8DB"/>
<path d="M32.4006 80.1251L25.4023 73L20.943 77.3799L27.9413 84.505L32.4006 80.1251Z" fill="#016DA2"/>
<path d="M176.284 72.7095L169 80.1245L173.519 84.5637L180.803 77.1487L176.284 72.7095Z" fill="#016DA2"/>
<path fill-rule="evenodd" clip-rule="evenodd" d="M4.99092 72.6079C0.365919 86.7895 -1.07549 101.838 0.795607 116.669C2.80928 132.635 8.60029 147.887 17.6843 161.156C26.7683 174.424 38.8854 185.324 53.0222 192.948C67.1608 200.572 82.9108 204.698 98.9616 204.984C115.01 205.27 130.897 201.707 145.298 194.591C159.696 187.476 172.19 177.014 181.739 164.078C191.288 151.141 197.614 136.105 200.192 120.221C202.77 104.336 201.526 88.0649 196.561 72.7609L196.458 72.7949L188.497 80.8906C191.717 93.1792 192.341 106.028 190.298 118.606C187.975 132.91 182.278 146.45 173.68 158.099C165.081 169.749 153.831 179.169 140.864 185.576C127.897 191.984 113.592 195.193 99.1394 194.935C84.6862 194.677 70.5026 190.961 57.7722 184.096C45.0417 177.231 34.1315 167.416 25.9499 155.468C17.7702 143.52 12.5554 129.785 10.7429 115.408C9.27998 103.801 10.0671 92.0463 13.0319 80.7844L4.99092 72.6079Z" fill="#016DA2"/>
<path fill-rule="evenodd" clip-rule="evenodd" d="M63 105V107.764L78.5 123.264V174.264L84.5 175.764V120.764L69 105.264V105H63Z" fill="#4AB8DB"/>
<path d="M63 105V104.5H62.5V105H63ZM63 107.764H62.5V107.971L62.6464 108.118L63 107.764ZM78.5 123.264H79V123.057L78.8536 122.91L78.5 123.264ZM78.5 174.264H78V174.654L78.3787 174.749L78.5 174.264ZM84.5 175.764L84.3787 176.249L85 176.404V175.764H84.5ZM84.5 120.764H85V120.557L84.8536 120.41L84.5 120.764ZM69 105.264H68.5V105.471L68.6464 105.618L69 105.264ZM69 105H69.5V104.5H69V105ZM62.5 105V107.764H63.5V105H62.5ZM62.6464 108.118L78.1464 123.618L78.8536 122.91L63.3536 107.41L62.6464 108.118ZM78 123.264V174.264H79V123.264H78ZM78.3787 174.749L84.3787 176.249L84.6213 175.279L78.6213 173.779L78.3787 174.749ZM85 175.764V120.764H84V175.764H85ZM84.8536 120.41L69.3536 104.91L68.6464 105.618L84.1464 121.118L84.8536 120.41ZM69.5 105.264V105H68.5V105.264H69.5ZM69 104.5H63V105.5H69V104.5Z" fill="#4AB8DC"/>
<path fill-rule="evenodd" clip-rule="evenodd" d="M132.5 104.5V105.264L117 120.764V175.764L123 174.264V123.264L138.5 107.764V104.5H132.5Z" fill="#4AB8DB"/>
<path d="M132.5 105.264L132.854 105.618L133 105.471V105.264H132.5ZM132.5 104.5V104H132V104.5H132.5ZM117 120.764L116.646 120.41L116.5 120.557V120.764H117ZM117 175.764H116.5V176.404L117.121 176.249L117 175.764ZM123 174.264L123.121 174.749L123.5 174.654V174.264H123ZM123 123.264L122.646 122.91L122.5 123.057V123.264H123ZM138.5 107.764L138.854 108.118L139 107.971V107.764H138.5ZM138.5 104.5H139V104H138.5V104.5ZM133 105.264V104.5H132V105.264H133ZM117.354 121.118L132.854 105.618L132.146 104.91L116.646 120.41L117.354 121.118ZM117.5 175.764V120.764H116.5V175.764H117.5ZM122.879 173.779L116.879 175.279L117.121 176.249L123.121 174.749L122.879 173.779ZM122.5 123.264V174.264H123.5V123.264H122.5ZM138.146 107.41L122.646 122.91L123.354 123.618L138.854 108.118L138.146 107.41ZM138 104.5V107.764H139V104.5H138ZM138.5 104H132.5V105H138.5V104Z" fill="#4AB8DC"/>
</g>
<defs>
<clipPath id="clip0_2526_2646">
<rect width="202" height="205" fill="white"/>
</clipPath>
</defs>
</svg>
