<svg width="244" height="229" viewBox="0 0 244 229" fill="none" xmlns="http://www.w3.org/2000/svg">
<path fill-rule="evenodd" clip-rule="evenodd" d="M0 0.0639801V123.203C2.31151 123.053 4.64102 122.977 6.9866 122.977C64.4714 122.977 112.298 168.562 122.341 228.729C132.384 168.562 180.211 122.977 237.696 122.977C239.811 122.977 241.913 123.039 244 123.161V0.0491295C242.439 0.0165062 240.874 0.00012207 239.306 0.00012207C197.096 0.00012207 157.305 11.8692 122.332 32.855C87.3593 11.8692 47.5678 0.00012207 5.35818 0.00012207C3.56771 0.00012207 1.78159 0.0214767 0 0.0639801Z" fill="#7FCEED"/>
<line x1="121.984" y1="227.125" x2="121.984" y2="33.0927" stroke="#8F8F8F"/>
<path fill-rule="evenodd" clip-rule="evenodd" d="M122.35 226.754C122.219 227.465 122.094 228.179 121.974 228.894C113.352 177.371 77.0193 136.551 30.6477 125.914C53.9547 87.034 85.3283 55.0049 122 33C122.117 33.0699 122.233 33.1398 122.35 33.2099V226.754Z" fill="#38AED6"/>
<path fill-rule="evenodd" clip-rule="evenodd" d="M121.85 226.756C121.98 227.465 122.104 228.177 122.224 228.89C130.848 177.368 167.18 136.55 213.55 125.914C190.243 87.0338 158.87 55.0048 122.198 33C122.082 33.0697 121.966 33.1395 121.85 33.2094V226.756Z" fill="url(#paint0_linear_2478_2171)"/>
<defs>
<linearGradient id="paint0_linear_2478_2171" x1="213.349" y1="125.998" x2="121.85" y2="126.998" gradientUnits="userSpaceOnUse">
<stop stop-color="#35ABD3"/>
<stop offset="1" stop-color="#1188AA"/>
</linearGradient>
</defs>
</svg>
