<svg width="804" height="503" viewBox="0 0 804 503" fill="none" xmlns="http://www.w3.org/2000/svg">
<path d="M752.898 243.663V104.298L804 87.9895V243.663H752.898Z" fill="#25B1F0"/>
<path d="M51.1035 253.816V393.182L0.00202179 409.49V253.816H51.1035Z" fill="#066FB0"/>
<path d="M401.591 480.549C355.423 480.134 310.416 466.124 272.266 440.291C234.115 414.459 204.536 377.965 187.271 335.429L234.846 316.373C248.316 349.56 271.394 378.031 301.158 398.185C330.922 418.339 366.036 429.27 402.055 429.594L401.591 480.549Z" fill="#9CDEF8"/>
<path d="M401.299 16.9333C448.178 16.4532 494.116 30.0105 533.127 55.8387C572.138 81.6669 602.413 118.568 620.009 161.735L572.462 180.86C558.734 147.182 535.113 118.392 504.678 98.2413C474.242 78.0906 438.402 67.5134 401.827 67.8879L401.299 16.9333Z" fill="#0095E2"/>
<path d="M51.133 429.795H402V480.559H0.00158691V407.798L51.133 389.185V429.795Z" fill="#0D8DD7"/>
<path d="M752.867 67.6844H402V16.9211H803.998V89.6818L752.867 108.295V67.6844Z" fill="#9CDEF8"/>
<path d="M402.238 16.9255C364.146 17.1633 326.693 26.6602 293.147 44.587C259.601 62.5138 230.982 88.3255 209.79 119.769C188.598 151.212 175.476 187.33 171.57 224.97C167.664 262.611 173.093 300.629 187.383 335.705L234.934 316.589C223.785 289.223 219.55 259.562 222.597 230.195C225.644 200.829 235.881 172.65 252.415 148.118C268.949 123.587 291.277 103.449 317.449 89.4629C343.621 75.4767 372.842 68.0674 402.56 67.8818L402.238 16.9255Z" fill="#27B1E6"/>
<path d="M804.001 242.648C804.001 304.974 779.842 364.911 736.531 410.033C693.22 455.156 634.079 482.004 571.367 485.014L568.908 434.515C618.553 432.133 665.372 410.878 699.659 375.157C733.945 339.436 753.071 291.988 753.071 242.648H804.001Z" fill="#27B1E6"/>
<path d="M401.75 480.551C440.131 480.87 477.999 471.78 511.998 454.086C545.998 436.392 575.079 410.641 596.665 379.114C618.251 347.587 631.676 311.258 635.75 273.345C639.824 235.432 634.421 197.106 620.02 161.763L572.47 180.882C583.706 208.456 587.921 238.357 584.743 267.936C581.564 297.515 571.09 325.859 554.249 350.456C537.408 375.053 514.719 395.144 488.194 408.948C461.668 422.752 432.124 429.844 402.18 429.595L401.75 480.551Z" fill="#0570B7"/>
<path d="M571.124 484.581H489.986C526.542 470.902 544.088 460.308 567.596 435.012H571.124V484.581Z" fill="#27B1E6" stroke="#27B1E6"/>
<path d="M-0.000335693 259.569C-0.000335693 197.243 23.9065 137.307 66.7647 92.184C109.623 47.0614 168.146 20.2129 230.202 17.2036L232.636 67.7023C183.509 70.0845 137.18 91.339 103.251 127.06C69.3231 162.781 50.3974 210.229 50.3974 259.569H-0.000335693Z" fill="#0570B7"/>
<path d="M228.659 17.7913H309.797C273.241 31.4709 255.696 42.0647 232.187 67.3601H228.659V17.7913Z" fill="#0570B7" stroke="#0570B7"/>
</svg>
