<svg width="182" height="174" viewBox="0 0 182 174" fill="none" xmlns="http://www.w3.org/2000/svg">
<path fill-rule="evenodd" clip-rule="evenodd" d="M176.428 71C177.68 77.3508 178.207 83.8425 177.992 90.3521C177.572 103.085 174.311 115.563 168.447 126.874C162.584 138.184 154.268 148.042 144.105 155.725C133.945 163.409 122.193 168.725 109.713 171.284C97.2344 173.843 84.3398 173.581 71.9727 170.516C59.6074 167.452 48.082 161.663 38.2422 153.573C32.6758 148.996 27.7246 143.748 23.5 137.964C25.4023 137.039 27.1582 135.822 28.6992 134.35C31.0898 132.067 32.8926 129.239 33.9531 126.109C35.0156 122.978 35.3027 119.637 34.7949 116.371C34.7051 115.797 34.5918 115.228 34.4551 114.665C34.3242 114.13 34.1719 113.601 33.998 113.08L54.5312 93.7913C54.918 93.9321 55.3105 94.0615 55.707 94.1792C58.6836 95.063 61.8223 95.2585 64.8867 94.7512C67.6094 94.3003 70.2109 93.3049 72.5352 91.8281L92.041 103.823C92.0605 105.15 92.209 106.478 92.4863 107.786C93.2188 111.234 94.8281 114.434 97.1582 117.079C99.4883 119.724 102.461 121.723 105.789 122.884C109.117 124.044 112.688 124.327 116.158 123.705C119.627 123.083 122.877 121.576 125.596 119.331C128.312 117.086 130.406 114.179 131.672 110.889C132.938 107.6 133.334 104.039 132.822 100.552C132.641 99.3157 132.348 98.1035 131.949 96.9297L159.254 71.2781C161.473 72.2581 163.863 72.8438 166.318 72.9902C169.82 73.1992 173.299 72.5054 176.428 71Z" fill="#0A3B4F"/>
<path fill-rule="evenodd" clip-rule="evenodd" d="M14.5 134C6.49187 134 0 127.508 0 119.5C0 113.06 4.19778 107.601 10.0062 105.71C10.0021 105.64 10 105.57 10 105.5V59.5C10 57.567 11.567 56 13.5 56C15.433 56 17 57.567 17 59.5V105.215C18.6389 105.5 20.1833 106.059 21.584 106.845L25.5 103.167V32.5C25.5 30.567 27.067 29 29 29C30.933 29 32.5 30.567 32.5 32.5V96.5906L41 88.6056V18.5C41 16.567 42.567 15 44.5 15C46.433 15 48 16.567 48 18.5V69.1979C49.5107 65.3544 52.6153 62.3122 56.5 60.8851V10.5C56.5 8.567 58.067 7 60 7C61.933 7 63.5 8.567 63.5 10.5V60.1368C66.8265 60.5957 69.7927 62.183 72 64.5V5.5C72 3.567 73.567 2 75.5 2C77.433 2 79 3.567 79 5.5V80.5672L87.5 85.7939V3.5C87.5 1.56701 89.067 0 91 0C92.933 0 94.5 1.567 94.5 3.5V90.0982L101.306 94.2831C101.821 93.6576 102.388 93.0761 103 92.545L103 92.5V5C103 3.067 104.567 1.5 106.5 1.5C108.433 1.5 110 3.067 110 5V89.2147C110.812 89.0736 111.647 89 112.5 89C114.64 89 116.672 89.4636 118.5 90.2957V9C118.5 7.06701 120.067 5.5 122 5.5C123.933 5.5 125.5 7.067 125.5 9V85.0489L134.001 77.0633C134 77.0423 134 77.0212 134 77V17C134 15.067 135.567 13.5 137.5 13.5C139.433 13.5 141 15.067 141 17V70.488L149.5 62.503V30.5C149.5 28.567 151.067 27 153 27C154.933 27 156.5 28.567 156.5 30.5V42.5524C159.159 39.4591 163.101 37.5 167.5 37.5C175.508 37.5 182 43.9919 182 52C182 60.0081 175.508 66.5 167.5 66.5C164.175 66.5 161.111 65.3806 158.664 63.498L124.597 95.5019C126.115 97.7945 127 100.544 127 103.5C127 111.508 120.508 118 112.5 118C104.492 118 98 111.508 98 103.5C98 102.521 98.097 101.565 98.2818 100.641L72.0118 84.4877C69.37 87.2672 65.6374 89 61.5 89C58.5088 89 55.7291 88.0943 53.4203 86.5421L26.6933 111.65C28.1529 113.912 29 116.607 29 119.5C29 127.508 22.5081 134 14.5 134ZM61.5 82.8702C56.8773 82.8702 53.1298 79.1227 53.1298 74.5C53.1298 69.8773 56.8773 66.1298 61.5 66.1298C66.1227 66.1298 69.8702 69.8773 69.8702 74.5C69.8702 79.1227 66.1227 82.8702 61.5 82.8702ZM159.13 52C159.13 56.6227 162.877 60.3702 167.5 60.3702C172.123 60.3702 175.87 56.6227 175.87 52C175.87 47.3773 172.123 43.6298 167.5 43.6298C162.877 43.6298 159.13 47.3773 159.13 52ZM104.13 103.5C104.13 108.123 107.877 111.87 112.5 111.87C117.123 111.87 120.87 108.123 120.87 103.5C120.87 98.8773 117.123 95.1298 112.5 95.1298C107.877 95.1298 104.13 98.8773 104.13 103.5ZM14.5 127.87C9.87729 127.87 6.12983 124.123 6.12983 119.5C6.12983 114.877 9.87729 111.13 14.5 111.13C19.1227 111.13 22.8702 114.877 22.8702 119.5C22.8702 124.123 19.1227 127.87 14.5 127.87Z" fill="url(#paint0_linear_2444_1919)"/>
<defs>
<linearGradient id="paint0_linear_2444_1919" x1="91" y1="0" x2="91" y2="134" gradientUnits="userSpaceOnUse">
<stop stop-color="#05A3FE"/>
<stop offset="1" stop-color="#0A3B4F"/>
</linearGradient>
</defs>
</svg>
