<svg width="202" height="205" viewBox="0 0 202 205" fill="none" xmlns="http://www.w3.org/2000/svg">
<path d="M72 135C72 141.075 67.0751 146 61 146C54.9249 146 50 141.075 50 135C50 128.925 54.9249 124 61 124C67.0751 124 72 128.925 72 135ZM57.1712 135C57.1712 137.115 58.8854 138.829 61 138.829C63.1146 138.829 64.8288 137.115 64.8288 135C64.8288 132.885 63.1146 131.171 61 131.171C58.8854 131.171 57.1712 132.885 57.1712 135Z" fill="#016DA2"/>
<path d="M152 135C152 141.075 147.075 146 141 146C134.925 146 130 141.075 130 135C130 128.925 134.925 124 141 124C147.075 124 152 128.925 152 135ZM137.171 135C137.171 137.115 138.885 138.829 141 138.829C143.115 138.829 144.829 137.115 144.829 135C144.829 132.885 143.115 131.171 141 131.171C138.885 131.171 137.171 132.885 137.171 135Z" fill="#016DA2"/>
<path d="M116.5 102.25C116.5 110.948 109.448 118 100.75 118C92.0515 118 85 110.948 85 102.25C85 93.5515 92.0515 86.5 100.75 86.5C109.448 86.5 116.5 93.5515 116.5 102.25ZM94.5274 102.25C94.5274 105.687 97.3134 108.473 100.75 108.473C104.187 108.473 106.973 105.687 106.973 102.25C106.973 98.8134 104.187 96.0274 100.75 96.0274C97.3134 96.0274 94.5274 98.8134 94.5274 102.25Z" fill="#016DA2"/>
<path d="M78.5 123.264V174.264L84.5 175.764V120.764L69 105.264V76H63V107.764L78.5 123.264Z" fill="#4AB8DB" stroke="#4AB8DC"/>
<path d="M123 123.264V174.264L117 175.764V120.764L132.5 105.264V76H138.5V107.764L123 123.264Z" fill="#4AB8DB" stroke="#4AB8DC"/>
<path d="M84.5 175.5V182.9L82.5 182.407" stroke="#4AB8DB"/>
<path d="M159.5 89.5V111L146 125L150.5 129L165.5 114V92L166 91.5L193 64H192.5H184.5L159.5 89.5Z" fill="#016DA2" stroke="#016DA2"/>
<path d="M42 89.5V111L55.5 125L51 129L36 114V92L35.5 91.5L8.5 64H9H17L42 89.5Z" fill="#016DA2" stroke="#016DA2"/>
<path d="M97.5 56V10H104V56H97.5Z" fill="#4AB8DB" stroke="#4AB8DB"/>
<path d="M96.8008 195V117H104.801V195H96.8008Z" fill="#016DA2" stroke="#016DA2"/>
<path d="M112 66C112 72.0751 107.075 77 101 77C94.9249 77 90 72.0751 90 66C90 59.9249 94.9249 55 101 55C107.075 55 112 59.9249 112 66ZM97.1712 66C97.1712 68.1146 98.8854 69.8288 101 69.8288C103.115 69.8288 104.829 68.1146 104.829 66C104.829 63.8854 103.115 62.1712 101 62.1712C98.8854 62.1712 97.1712 63.8854 97.1712 66Z" fill="#4AB8DB"/>
<path d="M77 66C77 72.0751 72.0751 77 66 77C59.9249 77 55 72.0751 55 66C55 59.9249 59.9249 55 66 55C72.0751 55 77 59.9249 77 66ZM62.1712 66C62.1712 68.1146 63.8854 69.8288 66 69.8288C68.1146 69.8288 69.8288 68.1146 69.8288 66C69.8288 63.8854 68.1146 62.1712 66 62.1712C63.8854 62.1712 62.1712 63.8854 62.1712 66Z" fill="#4AB8DB"/>
<path d="M146.5 66C146.5 72.0751 141.575 77 135.5 77C129.425 77 124.5 72.0751 124.5 66C124.5 59.9249 129.425 55 135.5 55C141.575 55 146.5 59.9249 146.5 66ZM131.671 66C131.671 68.1146 133.385 69.8288 135.5 69.8288C137.615 69.8288 139.329 68.1146 139.329 66C139.329 63.8854 137.615 62.1712 135.5 62.1712C133.385 62.1712 131.671 63.8854 131.671 66Z" fill="#4AB8DB"/>
<path d="M51 129L52 130L56.5 126L55.5 125" stroke="#016DA2"/>
<path d="M51.5 129.5L56 125.5" stroke="#016DA2"/>
<path d="M194.196 63.4764C186.723 44.7385 173.828 28.6766 157.173 17.3625C140.518 6.04837 120.867 0.000885727 100.754 9.72396e-08C80.6414 -0.000885533 60.9898 6.04487 44.3336 17.3575C27.6775 28.6702 14.7808 44.7309 7.30693 63.4682L16.6055 67.203C23.3357 50.3303 34.949 35.8678 49.9476 25.6809C64.9463 15.4939 82.6424 10.0498 100.754 10.0506C118.865 10.0514 136.56 15.4971 151.558 25.6853C166.556 35.8736 178.168 50.3371 184.897 67.2104L194.196 63.4764Z" fill="#016DA2"/>
<path d="M82.9112 183.005C71.6916 180.5 61.1147 175.691 51.851 168.883C42.5873 162.076 34.8387 153.418 29.0964 143.459C23.354 133.5 19.7431 122.457 18.4926 111.029C17.242 99.6013 18.379 88.0384 21.8315 77.0731L28.7481 79.2508C25.5972 89.2581 24.5595 99.8109 25.7008 110.24C26.8421 120.67 30.1376 130.748 35.3782 139.837C40.6189 148.926 47.6905 156.827 56.1449 163.04C64.5993 169.253 74.2521 173.641 84.4915 175.928L82.9112 183.005Z" fill="#4AB8DB"/>
<path d="M118.418 183.131C129.799 180.541 140.505 175.579 149.839 168.571C159.172 161.563 166.922 152.664 172.583 142.457C178.244 132.251 181.689 120.964 182.693 109.336C183.696 97.7073 182.236 85.9979 178.407 74.972L171.557 77.3508C175.051 87.4134 176.384 98.0998 175.468 108.712C174.552 119.325 171.409 129.625 166.242 138.94C161.075 148.256 154.002 156.376 145.484 162.773C136.966 169.169 127.195 173.696 116.809 176.06L118.418 183.131Z" fill="#4AB8DB"/>
<path d="M117 175.57V182.97L119 182.477" stroke="#4AB8DB"/>
<rect x="83" y="178" width="1" height="5" fill="#4AB8DB"/>
<rect x="117" y="177" width="2" height="6" fill="#4AB8DB"/>
<path fill-rule="evenodd" clip-rule="evenodd" d="M90.5006 19.6667C76.6933 21.4276 63.5446 26.6335 52.2685 34.8122C41.6402 42.5211 33.0057 52.6314 27.0566 64.2998L32.4659 69.7374C37.9057 58.1818 46.1809 48.1855 56.526 40.6821C66.5669 33.3993 78.2348 28.6992 90.5006 26.9825V19.6667Z" fill="#4AB8DB"/>
<path fill-rule="evenodd" clip-rule="evenodd" d="M144.664 41.5628C134.778 34.0935 123.218 29.1681 111 27.2079V19.8721C124.811 21.8901 137.894 27.3592 149.035 35.7772C159.397 43.6061 167.764 53.7468 173.481 65.3715L168.042 70.8384C162.825 59.2797 154.788 49.2121 144.664 41.5628Z" fill="#4AB8DB"/>
<rect x="25.4023" y="73" width="9.98715" height="6.2505" transform="rotate(45.5148 25.4023 73)" fill="#016DA2"/>
<rect x="169" y="80.1245" width="10.3943" height="6.33457" transform="rotate(-45.51 169 80.1245)" fill="#016DA2"/>
<path fill-rule="evenodd" clip-rule="evenodd" d="M4.99092 72.6077C0.365918 86.7893 -1.07549 101.838 0.795606 116.669C2.80928 132.635 8.60029 147.887 17.6843 161.156C26.7683 174.424 38.8854 185.324 53.0222 192.948C67.1608 200.572 82.9108 204.698 98.9616 204.984C115.01 205.27 130.897 201.707 145.298 194.591C159.696 187.476 172.19 177.014 181.739 164.078C191.288 151.141 197.614 136.105 200.192 120.221C202.77 104.336 201.526 88.0647 196.561 72.7607L196.458 72.7947L188.497 80.8904C191.717 93.179 192.341 106.028 190.298 118.606C187.975 132.91 182.278 146.45 173.68 158.099C165.081 169.749 153.831 179.169 140.864 185.576C127.897 191.984 113.592 195.193 99.1394 194.935C84.6862 194.677 70.5026 190.961 57.7722 184.096C45.0417 177.231 34.1315 167.416 25.9499 155.468C17.7702 143.52 12.5554 129.785 10.7429 115.408C9.27998 103.801 10.0671 92.0461 13.0319 80.7842L4.99092 72.6077Z" fill="#016DA2"/>
</svg>
