<svg width="101" height="178" viewBox="0 0 101 178" fill="none" xmlns="http://www.w3.org/2000/svg">
<path fill-rule="evenodd" clip-rule="evenodd" d="M55.7024 0C46.7024 11.6667 34.5024 42.4 57.7024 72C80.9024 101.6 74.3692 126 68.2027 134.5C63.036 141.833 48.9027 153 33.7027 139C18.5027 125 25.3693 99.1667 30.7027 88C33.2025 81 38.5023 65.5 39.7023 59.5C40.9023 53.5 38.5356 43.6667 37.2023 39.5C35.869 43.6667 30.8014 53.5 25.2014 59.5C24.9835 59.7334 24.7494 59.9829 24.5004 60.2481C20.8344 64.1533 13.9537 71.4832 8.41522 81.6635C11.3293 83.952 13.2012 87.5074 13.2012 91.5C13.2012 98.401 7.60882 103.996 0.708734 104C-0.301081 110.596 -0.312789 117.785 1.20231 125.5C1.30186 126.007 1.40238 126.507 1.50389 127.002C1.56953 127.001 1.63529 127 1.70117 127C8.60473 127 14.2012 132.596 14.2012 139.5C14.2012 143.821 12.0089 147.63 8.67596 149.875C12.6662 158.174 17.4136 163.152 22.8482 167.464C24.5585 164.165 27.4376 162 30.7012 162C35.9479 162 40.2012 167.596 40.2012 174.5C40.2012 174.904 40.1866 175.303 40.1582 175.697C46.1367 177.211 52.6841 177.675 59.4265 176.218C59.279 175.343 59.2012 174.434 59.2012 173.5C59.2012 166.596 63.4545 161 68.7012 161C72.3243 161 75.4736 163.669 77.0759 167.594C80.1554 165.138 83.2087 162.134 86.2012 158.5C88.4166 155.81 90.3136 152.963 91.9236 150.005C88.4802 147.779 86.2012 143.905 86.2012 139.5C86.2012 132.596 91.7976 127 98.7012 127C98.8121 127 98.9228 127.001 99.0331 127.004C99.9918 119.147 99.7107 111.268 98.6351 104C91.7619 103.964 86.2012 98.3815 86.2012 91.5C86.2012 87.1279 88.4458 83.2801 91.8455 81.0461C91.3085 79.956 90.7589 78.9381 90.2018 78C87.3324 73.1673 81.028 65.653 75.1238 58.6157C70.0326 52.5474 65.239 46.8338 63.2019 43.5C57.7024 34.5 56.2019 31 54.7019 24C53.5019 18.4 54.3689 4.83333 55.7024 0Z" fill="#25B1E9"/>
<path d="M71.1007 159C82.5668 144.6 77.1962 115 73.0776 102C74.6591 150.8 49.6848 149 37 142V163L41.448 176H60.2277C57.4601 166 66.3232 160.5 71.1007 159Z" fill="url(#paint0_linear_2534_3174)"/>
<path d="M50.0239 30C49.9398 28.9148 50.0344 26.3797 51.0239 18L51.5239 25.5L52.5239 32L52.5716 32.1829C53.4209 35.4376 53.8693 37.1561 55.0239 40C56.361 43.5025 57.2734 45.3339 59.0239 48.5L66.0239 60L76.0239 75C80.169 81.8703 82.2061 85.8752 85.0239 93.5C87.123 102.146 87.8423 106.956 88.5239 115.5C84.2274 112.019 82.1949 109.664 80.5239 103.5L76.0239 89C73.7167 83.5689 72.1058 80.5031 68.5239 75C65.3968 70.4815 64.427 68.7566 62.5239 65.5C58.6478 58.1708 56.4968 54.0592 53.5239 46.5C51.14 40.0739 50.4655 36.4569 50.0239 30Z" fill="url(#paint1_linear_2534_3174)" fill-opacity="0.47"/>
<path fill-rule="evenodd" clip-rule="evenodd" d="M58.3606 72C35.1606 42.4 47.3606 11.6667 56.3606 0C55.0271 4.83333 54.1601 18.4 55.3601 24C56.8601 31 58.3606 34.5 63.8601 43.5C65.8972 46.8338 70.6908 52.5474 75.782 58.6157C81.6862 65.653 87.9906 73.1673 90.86 78C91.4171 78.9381 91.9667 79.956 92.5037 81.0461C89.104 83.2801 86.8594 87.1279 86.8594 91.5C86.8594 98.3815 92.4201 103.964 99.2933 104C100.369 111.268 100.65 119.147 99.6913 127.004C99.581 127.001 99.4704 127 99.3594 127C92.4558 127 86.8594 132.596 86.8594 139.5C86.8594 143.905 89.1384 147.779 92.5818 150.005C90.9718 152.963 89.0748 155.81 86.8594 158.5C83.8669 162.134 80.8136 165.138 77.7341 167.594C76.1318 163.669 72.9825 161 69.3594 161C65.6126 161 62.3724 163.854 60.826 168H41.6582V143.958C53.9207 149.469 64.5345 140.641 68.8609 134.5C75.0274 126 81.5606 101.6 58.3606 72Z" fill="url(#paint2_linear_2534_3174)"/>
<path fill-rule="evenodd" clip-rule="evenodd" d="M51.0239 15C50.0344 23.3797 49.9398 25.9148 50.0239 27C50.4655 33.4569 51.14 37.0739 53.5239 43.5C56.4968 51.0592 58.6478 55.1708 62.5239 62.5C62.6568 62.7275 62.7852 62.9475 62.9101 63.1614C64.573 66.0112 65.6152 67.7971 68.5239 72C72.1058 77.5031 73.7167 80.5689 76.0239 86L80.5239 100.5C82.1949 106.664 84.2274 109.019 88.5239 112.5C87.8423 103.956 87.123 99.1462 85.0239 90.5C82.2061 82.8752 80.169 78.8703 76.0239 72L66.0239 57L59.0239 45.5C57.2734 42.3339 56.361 40.5025 55.0239 37C53.8693 34.1561 53.4209 32.4376 52.5716 29.1829L52.5239 29L51.5239 22.5L51.0239 15Z" fill="url(#paint3_linear_2534_3174)"/>
<path fill-rule="evenodd" clip-rule="evenodd" d="M41.6567 144.972V144.243C39.0669 143.181 36.3991 141.488 33.6977 139C18.4977 125 25.3643 99.1667 30.6977 88C33.1975 81 38.4973 65.5 39.6973 59.5C40.8973 53.5 38.5306 43.6667 37.1973 39.5C35.864 43.6667 30.7964 53.5 25.1964 59.5C24.9785 59.7334 24.7444 59.9829 24.4954 60.2481C20.8294 64.1534 13.9486 71.4833 8.41016 81.6636C11.3241 83.9521 13.196 87.5074 13.196 91.5C13.196 94.34 12.2489 96.9588 10.6533 99.0577L11.4797 98.9148C14.0387 113.715 17.7536 123.585 22.7306 130.578C27.6445 137.483 33.8176 141.626 41.4294 144.93L41.6567 144.972ZM25.83 135.856L25.8598 135.887L25.8423 135.875L25.83 135.856ZM17.3262 123.109C17.2434 122.928 17.1611 122.745 17.0793 122.562L17.1648 122.867L17.3262 123.109Z" fill="url(#paint4_linear_2534_3174)"/>
<path fill-rule="evenodd" clip-rule="evenodd" d="M72.5869 101.38C76.2576 117.073 72.1549 129.052 68.2027 134.5C63.036 141.833 48.9027 153 33.7027 139C18.5027 125 25.3693 99.1667 30.7027 88C33.2025 81 38.5023 65.5 39.7023 59.5C40.9023 53.5 38.5356 43.6667 37.2023 39.5C37.1997 39.5082 37.1971 39.5164 37.1944 39.5246C38.5291 43.705 40.8844 53.512 39.6867 59.5005C38.4867 65.5005 33.1869 81.0005 30.687 88.0005C25.3537 99.1672 18.487 125 33.687 139C36.3887 141.489 39.0566 143.182 41.6465 144.243V144.972L41.4213 144.931C33.8093 141.626 27.636 137.483 22.7221 130.578C17.7451 123.585 14.0302 113.715 11.4712 98.9148L10.6606 99.0549C8.37909 102.058 4.77048 103.998 0.708734 104C-0.301081 110.596 -0.312789 117.785 1.20231 125.5C1.30186 126.007 1.40238 126.507 1.50389 127.002C1.56953 127.001 1.63529 127 1.70117 127C8.60473 127 14.2012 132.596 14.2012 139.5C14.2012 143.821 12.0089 147.63 8.67596 149.875C12.6662 158.174 17.4136 163.152 22.8482 167.464C24.5585 164.165 27.4376 162 30.7012 162C35.9479 162 40.2012 167.596 40.2012 174.5C40.2012 174.904 40.1866 175.303 40.1582 175.697C46.1367 177.211 52.6841 177.675 59.4265 176.218C59.279 175.343 59.2012 174.434 59.2012 173.5C59.2012 166.905 63.0832 161.502 68.0047 161.033L68 161C84.161 147.272 78.5285 121.23 73 102L72.5869 101.38ZM25.8525 135.888L25.8204 135.855L25.8337 135.875L25.8525 135.888ZM17.0702 122.56C17.1524 122.745 17.2352 122.928 17.3185 123.111L17.1562 122.867L17.0702 122.56Z" fill="url(#paint5_linear_2534_3174)"/>
<path d="M24.5 68C30.4436 61.1817 32.7934 56.8936 36.5 49C35.4493 55.3877 34.3188 60.5022 33 64C31.1167 68.1331 29.5644 70.3642 25.5 76C21.8881 81.1038 21.7281 84.3274 21 91L17 83.5C17.1969 78.796 20.4651 72.7836 24.5 68Z" fill="url(#paint6_linear_2534_3174)"/>
<path d="M66.0039 153C34.9521 161.314 25.2367 150.935 13.0039 122.5C15.4035 137.777 20.6754 149.098 34.0039 157C40.8383 160.728 53.4944 162.483 66.0039 153Z" fill="url(#paint7_linear_2534_3174)"/>
<path d="M66 137.5C46.8373 154.561 29.3181 141.683 17.5 121C22.7852 134.217 32.8145 145.87 45.5 148C51.5365 148.858 58.5936 146.589 66 137.5Z" fill="url(#paint8_linear_2534_3174)"/>
<path d="M68.5 89C74.7367 102.728 77.5099 112.159 79 137C79.7379 121.973 79.8288 113.351 78.5 106.5C75.2507 92.171 66.4941 79.7582 50.5 61C58.0313 71.8943 62.2755 77.9969 68.5 89Z" fill="url(#paint9_linear_2534_3174)"/>
<defs>
<linearGradient id="paint0_linear_2534_3174" x1="82.2661" y1="143" x2="36.7826" y2="148.375" gradientUnits="userSpaceOnUse">
<stop stop-color="#385CA7"/>
<stop offset="1" stop-color="#25B1E9"/>
</linearGradient>
<linearGradient id="paint1_linear_2534_3174" x1="42" y1="14.5" x2="87.5" y2="115" gradientUnits="userSpaceOnUse">
<stop offset="0.12071" stop-color="white"/>
<stop offset="1" stop-color="white" stop-opacity="0.1"/>
</linearGradient>
<linearGradient id="paint2_linear_2534_3174" x1="52.9607" y1="-0.501212" x2="78.6128" y2="169.859" gradientUnits="userSpaceOnUse">
<stop offset="0.00930825" stop-color="#4DBBEF"/>
<stop offset="1" stop-color="#376EB8"/>
</linearGradient>
<linearGradient id="paint3_linear_2534_3174" x1="49" y1="14" x2="86" y2="112" gradientUnits="userSpaceOnUse">
<stop stop-color="#89D7FC"/>
<stop offset="1" stop-color="#3F87CA"/>
</linearGradient>
<linearGradient id="paint4_linear_2534_3174" x1="25.0334" y1="39.5" x2="25.0334" y2="144.972" gradientUnits="userSpaceOnUse">
<stop stop-color="#25B1E9"/>
<stop offset="1" stop-color="#3C5CA0"/>
</linearGradient>
<linearGradient id="paint5_linear_2534_3174" x1="-14" y1="128.5" x2="79" y2="146" gradientUnits="userSpaceOnUse">
<stop stop-color="#24B2E4"/>
<stop offset="1" stop-color="#355CA9"/>
</linearGradient>
<linearGradient id="paint6_linear_2534_3174" x1="37.5" y1="46.5" x2="17" y2="88.5" gradientUnits="userSpaceOnUse">
<stop offset="0.0178258" stop-color="#85D0FB"/>
<stop offset="1" stop-color="#3186C4"/>
</linearGradient>
<linearGradient id="paint7_linear_2534_3174" x1="7" y1="130" x2="66" y2="157" gradientUnits="userSpaceOnUse">
<stop stop-color="#74C0EF"/>
<stop offset="1" stop-color="#3464AE"/>
</linearGradient>
<linearGradient id="paint8_linear_2534_3174" x1="17" y1="123.5" x2="67" y2="141" gradientUnits="userSpaceOnUse">
<stop stop-color="#22A4EC"/>
<stop offset="0.468839" stop-color="white"/>
<stop offset="1" stop-color="#3BAEEF"/>
</linearGradient>
<linearGradient id="paint9_linear_2534_3174" x1="55" y1="61" x2="80" y2="133" gradientUnits="userSpaceOnUse">
<stop stop-color="#8EDAF9"/>
<stop offset="0.45" stop-color="#BAECFF"/>
<stop offset="1" stop-color="#358DCF"/>
</linearGradient>
</defs>
</svg>
